<svg width="1130" height="180" viewBox="0 0 1130 180" fill="none" xmlns="http://www.w3.org/2000/svg">
<g clip-path="url(#clip0_20_228)">
<mask id="mask0_20_228" style="mask-type:luminance" maskUnits="userSpaceOnUse" x="0" y="0" width="305" height="180">
<path d="M305 0H0V180H305V0Z" fill="white"/>
</mask>
<g mask="url(#mask0_20_228)">
<mask id="mask1_20_228" style="mask-type:luminance" maskUnits="userSpaceOnUse" x="82" y="42" width="136" height="97">
<path d="M217.681 42H82.1287V138.629H217.681V42Z" fill="white"/>
</mask>
<g mask="url(#mask1_20_228)">
<path d="M145.07 86.9855L131.71 138.629H112.211L85.1287 42H102.1L116.363 97.782C117.567 102.341 118.59 106.839 119.433 111.278C120.396 115.716 121.298 120.215 122.141 124.773H123.044C124.127 120.215 125.15 115.716 126.113 111.278C127.196 106.839 128.34 102.341 129.543 97.782L144.348 42H156.129L151.751 58.7346C150.667 63.773 149.584 68.6314 148.501 73.3099C147.538 77.8685 146.394 82.4269 145.07 86.9855Z" fill="#F5F5F5"/>
<path d="M156.129 92.5L162.811 66L171.349 97.782C172.553 102.341 173.696 106.839 174.78 111.278C175.863 115.716 176.946 120.215 178.029 124.773H178.752C179.835 120.215 180.858 115.716 181.821 111.278C182.784 106.839 183.807 102.341 184.89 97.782L198.973 42H214.681L188.682 138.629H168.46L156.129 92.5Z" fill="#F5F5F5"/>
</g>
<mask id="mask2_20_228" style="mask-type:luminance" maskUnits="userSpaceOnUse" x="262" y="0" width="43" height="180">
<path d="M304.68 0H262.68V180H304.68V0Z" fill="white"/>
</mask>
<g mask="url(#mask2_20_228)">
<path d="M292.895 105.829V156.482C292.895 164.684 291 170.654 287.21 174.392C283.419 178.13 277.367 180 269.052 180H263V168.241H269.969C276.083 168.241 279.14 164.623 279.14 157.387V109.447C279.14 99.0753 280.974 91.7186 284.642 87.3769C286.354 85.3266 288.555 83.6382 291.245 82.3116C285.742 79.5376 282.258 75.6784 280.79 70.7337C279.69 66.7538 279.14 62.1708 279.14 56.9849V20.804C279.14 17.6683 278.406 15.3769 276.939 13.9296C275.472 12.4824 273.148 11.7588 269.969 11.7588H263V0H269.052C277.367 0 283.419 1.86934 287.21 5.60803C291 9.34673 292.895 15.3165 292.895 23.5176V58.794C292.895 69.5277 296.93 76.0402 305 78.3316V86.2914C296.93 88.5829 292.895 95.0954 292.895 105.829Z" fill="#00E5FF"/>
</g>
<mask id="mask3_20_228" style="mask-type:luminance" maskUnits="userSpaceOnUse" x="0" y="0" width="42" height="180">
<path d="M42 0H0V180H42V0Z" fill="white"/>
</mask>
<g mask="url(#mask3_20_228)">
<path d="M12.1048 156.482V105.829C12.1048 95.0954 8.06987 88.5829 0 86.2914V78.3316C8.06987 76.0402 12.1048 69.5277 12.1048 58.794V23.5176C12.1048 15.3165 14 9.34673 17.7904 5.60803C21.5807 1.86934 27.6331 0 35.9476 0H42V11.7588H35.0306C31.8515 11.7588 29.5284 12.4824 28.0611 13.9296C26.5939 15.3769 25.8603 17.6683 25.8603 20.804V56.9849C25.8603 66.6332 24.0874 73.4472 20.5415 77.4271C18.7074 79.3567 16.4454 80.9849 13.7555 82.3116C18.8908 84.8442 22.1921 88.4623 23.6594 93.1658C25.1266 97.7488 25.8603 103.176 25.8603 109.447V157.387C25.8603 164.623 28.917 168.241 35.0306 168.241H42V180H35.9476C27.6331 180 21.5807 178.13 17.7904 174.392C14 170.654 12.1048 164.684 12.1048 156.482Z" fill="#00E5FF"/>
</g>
</g>
<mask id="mask4_20_228" style="mask-type:luminance" maskUnits="userSpaceOnUse" x="347" y="1" width="783" height="179">
<path d="M1130 1H347V180H1130V1Z" fill="white"/>
</mask>
<g mask="url(#mask4_20_228)">
<path d="M433.88 2.056L415.64 70.6H406.904L393.56 25.672C393.048 23.816 392.536 21.96 392.024 20.104C391.512 18.248 391.096 16.616 390.776 15.208C390.456 13.736 390.232 12.712 390.104 12.136C390.04 12.968 389.688 14.76 389.048 17.512C388.472 20.2 387.736 23.016 386.84 25.96L373.88 70.6H365.144L347 2.056H356.024L366.68 43.912C367.448 46.856 368.088 49.704 368.6 52.456C369.176 55.208 369.624 57.8 369.944 60.232C370.264 57.736 370.744 55.016 371.384 52.072C372.024 49.128 372.76 46.248 373.592 43.432L385.688 2.056H394.616L407.192 43.72C408.088 46.664 408.856 49.608 409.496 52.552C410.136 55.432 410.616 57.992 410.936 60.232C411.256 57.864 411.704 55.304 412.28 52.552C412.856 49.736 413.528 46.824 414.296 43.816L424.856 2.056H433.88ZM514.137 70.6L505.881 49.384H478.713L470.553 70.6H461.817L488.601 1.768H496.377L523.065 70.6H514.137ZM495.609 20.968C495.417 20.456 495.097 19.528 494.649 18.184C494.201 16.84 493.753 15.464 493.305 14.056C492.921 12.584 492.601 11.464 492.345 10.696C491.897 12.68 491.385 14.632 490.809 16.552C490.233 18.408 489.753 19.88 489.369 20.968L481.593 41.704H503.289L495.609 20.968ZM559.16 70.6V2.056H567.8V62.92H597.752V70.6H559.16ZM674.526 70.6H636.222V2.056H674.526V9.64H644.862V31.048H672.798V38.536H644.862V63.016H674.526V70.6ZM770.621 70.6H760.541L723.869 13.672H723.485C723.613 15.912 723.773 18.696 723.965 22.024C724.157 25.352 724.253 28.776 724.253 32.296V70.6H716.285V2.056H726.269L762.845 58.792H763.229C763.165 57.768 763.069 56.232 762.941 54.184C762.877 52.136 762.781 49.896 762.653 47.464C762.589 45.032 762.557 42.792 762.557 40.744V2.056H770.621V70.6ZM870.853 35.656C870.853 47.24 867.685 55.976 861.349 61.864C855.077 67.688 846.309 70.6 835.045 70.6H815.941V2.056H837.061C843.973 2.056 849.957 3.336 855.013 5.896C860.069 8.456 863.973 12.232 866.725 17.224C869.477 22.152 870.853 28.296 870.853 35.656ZM861.733 35.944C861.733 26.792 859.461 20.104 854.917 15.88C850.437 11.592 844.069 9.448 835.813 9.448H824.581V63.208H833.893C852.453 63.208 861.733 54.12 861.733 35.944ZM972.593 36.232C972.593 43.336 971.377 49.544 968.945 54.856C966.577 60.104 963.057 64.2 958.385 67.144C953.713 70.088 947.921 71.56 941.009 71.56C933.905 71.56 927.985 70.088 923.249 67.144C918.577 64.2 915.089 60.072 912.785 54.76C910.481 49.448 909.329 43.24 909.329 36.136C909.329 29.096 910.481 22.952 912.785 17.704C915.089 12.456 918.577 8.36 923.249 5.416C927.985 2.472 933.937 1 941.105 1C947.953 1 953.713 2.472 958.385 5.416C963.057 8.296 966.577 12.392 968.945 17.704C971.377 22.952 972.593 29.128 972.593 36.232ZM918.449 36.232C918.449 44.872 920.273 51.688 923.921 56.68C927.569 61.608 933.265 64.072 941.009 64.072C948.817 64.072 954.513 61.608 958.097 56.68C961.681 51.688 963.473 44.872 963.473 36.232C963.473 27.592 961.681 20.84 958.097 15.976C954.513 11.048 948.849 8.584 941.105 8.584C933.361 8.584 927.633 11.048 923.921 15.976C920.273 20.84 918.449 27.592 918.449 36.232ZM1014.5 70.6V2.056H1023.14V62.92H1053.1V70.6H1014.5ZM1100.21 70.6H1091.57V2.056H1129.87V9.64H1100.21V33.928H1128.05V41.512H1100.21V70.6Z" fill="#F5F5F5"/>
<path d="M353.657 173.04V179.696H347V173.04H353.657ZM419.879 156.4C419.879 164.123 417.767 169.947 413.543 173.872C409.362 177.755 403.516 179.696 396.007 179.696H383.271V134H397.351C401.959 134 405.948 134.853 409.319 136.56C412.69 138.267 415.292 140.784 417.127 144.112C418.962 147.397 419.879 151.493 419.879 156.4ZM413.799 156.592C413.799 150.491 412.284 146.032 409.255 143.216C406.268 140.357 402.023 138.928 396.519 138.928H389.031V174.768H395.239C407.612 174.768 413.799 168.709 413.799 156.592ZM473.369 179.696H447.833V134H473.369V139.056H453.593V153.328H472.217V158.32H453.593V174.64H473.369V179.696ZM533.4 134L517.08 179.696H511.32L495 134H501.016L511.32 163.312C512.003 165.189 512.579 166.96 513.048 168.624C513.518 170.245 513.902 171.803 514.2 173.296C514.499 171.803 514.883 170.224 515.352 168.56C515.822 166.896 516.398 165.104 517.08 163.184L527.32 134H533.4Z" fill="#00E5FF"/>
</g>
</g>
<defs>
<clipPath id="clip0_20_228">
<rect width="1130" height="180" fill="white"/>
</clipPath>
</defs>
</svg>
