<svg width="281" height="75" viewBox="0 0 281 75" fill="none" xmlns="http://www.w3.org/2000/svg">
<path d="M18.688 74.856H7.42397C6.9973 74.856 6.52797 74.6853 6.01597 74.344C5.5893 74.0027 5.37597 73.448 5.37597 72.68V71.784C5.37597 70.4187 6.05864 69.736 7.42397 69.736H18.688C22.016 69.736 23.68 67.7307 23.68 63.72V62.312C21.7173 63.1653 19.9253 63.592 18.304 63.592H13.696C10.7093 63.592 8.31997 62.6533 6.52797 60.776C4.73597 58.8133 3.83997 56.0827 3.83997 52.584V38.376C3.83997 34.8773 4.73597 32.1893 6.52797 30.312C8.31997 28.3493 10.7093 27.368 13.696 27.368H26.624C27.2213 27.368 27.6907 27.624 28.032 28.136C28.3733 28.5627 28.544 28.9893 28.544 29.416V63.848C28.544 67.3467 27.648 70.0347 25.856 71.912C24.064 73.8747 21.6747 74.856 18.688 74.856ZM13.44 32.616C11.7333 32.616 10.496 33.0853 9.72797 34.024C9.0453 34.9627 8.70397 36.4133 8.70397 38.376V52.584C8.70397 56.5093 10.368 58.472 13.696 58.472H18.304C21.888 58.472 23.68 56.5947 23.68 52.84L23.936 32.488L13.44 32.616ZM70.379 63.208C70.0377 64.4027 69.3123 65 68.203 65H66.667C65.5577 65 64.8323 64.4453 64.491 63.336L57.451 38.248L50.411 63.464C50.2403 63.8907 49.9843 64.2747 49.643 64.616C49.3017 64.872 48.8323 65 48.235 65H46.827C45.7177 65 44.9923 64.4027 44.651 63.208L34.539 30.056C34.4537 29.4587 34.539 28.8613 34.795 28.264C35.051 27.6667 35.6057 27.368 36.459 27.368H37.483C38.507 27.368 39.1897 27.9653 39.531 29.16L47.467 55.4L54.891 29.032C55.2323 27.9227 55.9577 27.368 57.067 27.368H58.091C58.7737 27.368 59.243 27.5387 59.499 27.88C59.755 28.2213 59.9683 28.6053 60.139 29.032L67.435 55.4L75.243 28.904C75.4137 28.5627 75.6697 28.2213 76.011 27.88C76.3523 27.5387 76.8217 27.368 77.419 27.368H78.571C79.339 27.368 79.851 27.7093 80.107 28.392C80.4483 28.9893 80.5337 29.5013 80.363 29.928L70.379 63.208ZM90.692 65H88.132C87.4493 65 87.108 64.3173 87.108 62.952V55.144C87.108 53.7787 87.4493 53.096 88.132 53.096H90.692C91.3747 53.096 91.716 53.7787 91.716 55.144V62.952C91.716 64.3173 91.3747 65 90.692 65ZM124.737 65H123.969C123.457 65 123.073 64.9147 122.817 64.744C122.561 64.5733 122.305 64.1467 122.049 63.464C121.11 64.0613 120.172 64.488 119.233 64.744C118.38 64.9147 117.484 65 116.545 65H111.937C108.865 65 106.433 64.0613 104.641 62.184C102.934 60.2213 102.081 57.448 102.081 53.864V37.48C102.081 33.9813 102.934 31.2933 104.641 29.416C106.433 27.4533 108.865 26.472 111.937 26.472H116.545C117.484 26.472 118.38 26.6 119.233 26.856C120.086 27.0267 121.025 27.4107 122.049 28.008V15.336C122.049 14.824 122.177 14.3547 122.433 13.928C122.689 13.416 123.201 13.16 123.969 13.16H124.737C126.102 13.16 126.785 13.8853 126.785 15.336V62.824C126.785 64.2747 126.102 65 124.737 65ZM122.049 37.224C122.049 33.4693 120.172 31.592 116.417 31.592H111.937C108.524 31.592 106.817 33.5547 106.817 37.48V53.736C106.817 57.7467 108.524 59.752 111.937 59.752H116.417C120.172 59.752 122.049 57.9173 122.049 54.248V37.224ZM158.752 49H140.192V54.12C140.192 58.0453 141.899 60.008 145.312 60.008H158.24C159.605 60.008 160.288 60.6907 160.288 62.056V62.952C160.288 63.6347 160.032 64.1467 159.52 64.488C159.093 64.8293 158.667 65 158.24 65H145.312C142.24 65 139.808 64.0187 138.016 62.056C136.309 60.0933 135.456 57.4907 135.456 54.248V38.12C135.456 34.8773 136.309 32.2747 138.016 30.312C139.808 28.3493 142.24 27.368 145.312 27.368H150.816C153.973 27.368 156.405 28.3493 158.112 30.312C159.819 32.2747 160.672 34.8773 160.672 38.12V46.696C160.672 47.208 160.501 47.72 160.16 48.232C159.904 48.744 159.435 49 158.752 49ZM155.936 38.12C155.936 34.28 154.229 32.36 150.816 32.36H145.312C141.899 32.36 140.192 34.28 140.192 38.12V44.008H155.936V38.12ZM182.67 63.336C182.414 64.4453 181.774 65 180.75 65H179.214C178.617 65 178.147 64.8293 177.806 64.488C177.55 64.0613 177.379 63.72 177.294 63.464L167.31 30.056C167.139 29.3733 167.182 28.776 167.438 28.264C167.694 27.6667 168.249 27.368 169.102 27.368H170.126C170.723 27.368 171.15 27.5813 171.406 28.008C171.747 28.3493 171.961 28.6053 172.046 28.776L179.982 56.168C180.835 53.096 181.689 50.024 182.542 46.952C183.481 43.7947 184.377 40.936 185.23 38.376L188.046 28.904C188.046 28.7333 188.174 28.4347 188.43 28.008C188.771 27.5813 189.241 27.368 189.838 27.368H190.862C191.715 27.368 192.27 27.6667 192.526 28.264C192.782 28.776 192.825 29.3733 192.654 30.056L182.67 63.336Z" fill="#00E5FF"/>
<mask id="mask0_6_53" style="mask-type:luminance" maskUnits="userSpaceOnUse" x="206" y="0" width="75" height="75">
<path d="M281 0H206V75H281V0Z" fill="white"/>
</mask>
<g mask="url(#mask0_6_53)">
<path d="M268.5 31.25H268.141C268.574 29.8228 268.672 28.3147 268.427 26.8434C268.182 25.372 267.601 23.977 266.728 22.7673C265.856 21.5575 264.716 20.5655 263.397 19.8687C262.078 19.1719 260.616 18.7891 259.125 18.75H215.375C198.341 19.9125 209.125 45.7844 213.534 52.85C215.512 55.8454 218.208 58.2979 221.377 59.9835C224.545 61.6692 228.086 62.5343 231.675 62.5H242.822C246.353 62.5323 249.837 61.6938 252.967 60.0586C256.097 58.4234 258.775 56.0419 260.766 53.125H268.5C283.544 52.8344 286.497 30.6937 268.5 31.25ZM242.822 56.25H231.675C229.126 56.2844 226.608 55.6791 224.353 54.4896C222.098 53.3 220.177 51.5641 218.766 49.4406C217.066 47.8125 207.544 25 215.375 25H259.125C259.555 24.9986 259.98 25.0884 260.373 25.2635C260.766 25.4385 261.117 25.6949 261.403 26.0156C261.708 26.3512 261.938 26.7475 262.078 27.1783C262.219 27.6092 262.267 28.065 262.219 28.5156C260.459 41.825 257.15 55.6594 242.822 56.25ZM268.5 46.875H264.088C265.372 43.8501 266.37 40.7113 267.069 37.5C270.847 37.2469 275.025 38.175 274.75 41.0719C274.649 42.6552 273.944 44.1393 272.781 45.2188C271.619 46.2983 270.086 46.891 268.5 46.875ZM234.203 9.375V3.125C234.203 2.2962 234.532 1.50134 235.118 0.915291C235.704 0.32924 236.499 0 237.328 0C238.157 0 238.952 0.32924 239.538 0.915291C240.124 1.50134 240.453 2.2962 240.453 3.125V9.375C240.453 10.2038 240.124 10.9987 239.538 11.5847C238.952 12.1708 238.157 12.5 237.328 12.5C236.499 12.5 235.704 12.1708 235.118 11.5847C234.532 10.9987 234.203 10.2038 234.203 9.375ZM246.703 9.375V3.125C246.703 2.2962 247.032 1.50134 247.618 0.915291C248.204 0.32924 248.999 0 249.828 0C250.657 0 251.452 0.32924 252.038 0.915291C252.624 1.50134 252.953 2.2962 252.953 3.125V9.375C252.953 10.2038 252.624 10.9987 252.038 11.5847C251.452 12.1708 250.657 12.5 249.828 12.5C248.999 12.5 248.204 12.1708 247.618 11.5847C247.032 10.9987 246.703 10.2038 246.703 9.375ZM221.703 9.375V3.125C221.703 2.2962 222.032 1.50134 222.618 0.915291C223.204 0.32924 223.999 0 224.828 0C225.657 0 226.452 0.32924 227.038 0.915291C227.624 1.50134 227.953 2.2962 227.953 3.125V9.375C227.953 10.2038 227.624 10.9987 227.038 11.5847C226.452 12.1708 225.657 12.5 224.828 12.5C223.999 12.5 223.204 12.1708 222.618 11.5847C222.032 10.9987 221.703 10.2038 221.703 9.375ZM268.5 71.875C268.5 72.7038 268.171 73.4987 267.585 74.0847C266.999 74.6708 266.204 75 265.375 75H209.125C208.296 75 207.501 74.6708 206.915 74.0847C206.329 73.4987 206 72.7038 206 71.875C206 71.0462 206.329 70.2513 206.915 69.6653C207.501 69.0792 208.296 68.75 209.125 68.75H265.375C266.204 68.75 266.999 69.0792 267.585 69.6653C268.171 70.2513 268.5 71.0462 268.5 71.875Z" fill="#00E5FF"/>
</g>
</svg>
